<?xml version="1.0" encoding="UTF-8" standalone="no"?>
<!DOCTYPE svg PUBLIC "-//W3C//DTD SVG 1.1//EN" "http://www.w3.org/Graphics/SVG/1.1/DTD/svg11.dtd">
<svg width="100%" height="100%" viewBox="0 0 3163 766" version="1.1" xmlns="http://www.w3.org/2000/svg" xmlns:xlink="http://www.w3.org/1999/xlink" xml:space="preserve" xmlns:serif="http://www.serif.com/" style="fill-rule:evenodd;clip-rule:evenodd;stroke-linejoin:round;stroke-miterlimit:2;">
    <g transform="matrix(8.115,0,0,8.115,-65.7219,117.946)">
        <g id="SvgjsG46671" transform="matrix(-0.803493,0,0,-0.803493,86.4022,78.6666)">
            <g>
                <path d="M42.817,59.943C40.274,62.358 36.441,62.131 34.028,59.579C31.738,57.17 31.713,53.325 34.256,50.916C36.679,48.627 40.632,48.728 42.927,51.145C45.343,53.689 45.231,57.648 42.817,59.943M64.765,83.079C62.225,85.488 58.386,85.26 56.085,82.846C53.681,80.3 53.783,76.598 56.324,74.177C58.738,71.887 62.577,71.865 64.986,74.405C67.282,76.825 67.18,80.783 64.765,83.079" style="fill:url(#_Linear1);fill-rule:nonzero;"/>
                <path d="M55.196,72.017C52.172,74.888 47.598,74.609 44.881,71.744C42.005,68.721 41.993,64.152 45.012,61.287C47.883,58.559 52.598,58.684 55.458,61.709C58.187,64.585 58.061,69.29 55.196,72.017" style="fill:url(#_Linear2);fill-rule:nonzero;"/>
                <path d="M32.499,70.451C30.597,72.252 27.499,72.058 25.69,70.15C23.881,68.236 23.964,65.268 25.875,63.462C27.78,61.651 30.873,61.606 32.681,63.514C34.493,65.421 34.41,68.64 32.499,70.451" style="fill:url(#_Linear3);fill-rule:nonzero;"/>
                <path d="M51.665,90.659C49.763,92.471 46.79,92.39 44.984,90.488C43.17,88.581 43.13,85.476 45.041,83.671C46.943,81.855 50.167,81.951 51.973,83.854C53.783,85.761 53.573,88.854 51.665,90.659" style="fill:url(#_Linear4);fill-rule:nonzero;"/>
                <g>
                    <path d="M27.892,31.329C27.052,30.446 27.089,28.959 28.105,27.991C28.994,27.148 30.48,27.182 31.329,28.071C32.295,29.096 32.258,30.571 31.361,31.42C30.349,32.388 28.863,32.348 27.892,31.329" style="fill:url(#_Linear5);fill-rule:nonzero;"/>
                    <path d="M11.468,46.724C10.625,45.835 10.668,44.36 11.556,43.511C12.578,42.542 14.056,42.583 14.905,43.466C15.867,44.486 15.83,45.972 14.811,46.94C13.92,47.783 12.434,47.75 11.468,46.724" style="fill:url(#_Linear6);fill-rule:nonzero;"/>
                    <path d="M5.85,38.949C5.161,38.226 5.195,37.019 5.915,36.33C6.747,35.538 7.957,35.566 8.644,36.301C9.433,37.127 9.398,38.329 8.567,39.115C7.846,39.804 6.636,39.781 5.85,38.949" style="fill:url(#_Linear7);fill-rule:nonzero;"/>
                    <path d="M20.732,24.437C20.04,23.708 20.074,22.506 20.8,21.811C21.626,21.025 22.836,21.06 23.525,21.783C24.311,22.615 24.277,23.822 23.448,24.608C22.726,25.297 21.516,25.269 20.732,24.437" style="fill:url(#_Linear8);fill-rule:nonzero;"/>
                    <path d="M9.529,27.438C8.683,26.544 8.726,25.057 9.609,24.209C10.498,23.372 11.99,23.412 12.841,24.306C13.795,25.314 13.756,26.806 12.867,27.649C11.978,28.492 10.492,28.447 9.529,27.438" style="fill:url(#_Linear9);fill-rule:nonzero;"/>
                    <path d="M35.521,40.179C34.072,38.658 34.265,36.312 35.667,34.985C37.19,33.539 39.415,33.595 40.861,35.117C42.188,36.523 42.128,38.75 40.611,40.191C39.206,41.529 36.851,41.586 35.521,40.179" style="fill:url(#_Linear10);fill-rule:nonzero;"/>
                    <path d="M18.106,56.697C16.662,55.176 16.722,52.943 18.243,51.502C19.644,50.182 21.996,50.113 23.443,51.639C24.767,53.041 24.588,55.393 23.187,56.714C21.661,58.16 19.434,58.103 18.106,56.697" style="fill:url(#_Linear11);fill-rule:nonzero;"/>
                    <path d="M16.221,37.041C14.894,35.641 15.082,33.288 16.474,31.961C18.001,30.515 20.23,30.577 21.555,31.979C23.008,33.5 22.951,35.732 21.421,37.178C20.023,38.505 17.671,38.568 16.221,37.041" style="fill:url(#_Linear12);fill-rule:nonzero;"/>
                    <path d="M24.976,47.8C23.176,45.898 23.378,42.81 25.281,40.993C27.198,39.182 30.171,39.267 31.973,41.176C33.784,43.078 33.829,46.177 31.916,47.988C30.007,49.799 26.79,49.709 24.976,47.8" style="fill:url(#_Linear13);fill-rule:nonzero;"/>
                </g>
                <g>
                    <path d="M84.46,88.825C85.331,89.691 86.817,89.679 87.797,88.683C88.663,87.811 88.651,86.325 87.78,85.464C86.777,84.479 85.302,84.485 84.436,85.361C83.457,86.353 83.457,87.834 84.46,88.825" style="fill:url(#_Linear14);fill-rule:nonzero;"/>
                    <path d="M68.717,104.926C69.595,105.786 71.075,105.78 71.942,104.909C72.932,103.906 72.921,102.426 72.055,101.559C71.053,100.58 69.561,100.591 68.58,101.582C67.715,102.455 67.727,103.941 68.717,104.926" style="fill:url(#_Linear15);fill-rule:nonzero;"/>
                    <path d="M76.378,110.708C77.09,111.408 78.297,111.402 79.004,110.696C79.813,109.887 79.801,108.675 79.089,107.973C78.275,107.17 77.068,107.17 76.258,107.985C75.563,108.697 75.563,109.905 76.378,110.708" style="fill:url(#_Linear16);fill-rule:nonzero;"/>
                    <path d="M91.197,96.138C91.909,96.833 93.123,96.833 93.823,96.116C94.632,95.306 94.621,94.094 93.914,93.393C93.1,92.584 91.887,92.595 91.084,93.415C90.383,94.122 90.383,95.335 91.197,96.138" style="fill:url(#_Linear17);fill-rule:nonzero;"/>
                    <path d="M87.957,107.273C88.84,108.127 90.326,108.122 91.191,107.251C92.051,106.385 92.045,104.887 91.169,104.027C90.178,103.047 88.686,103.052 87.82,103.924C86.96,104.795 86.978,106.288 87.957,107.273" style="fill:url(#_Linear18);fill-rule:nonzero;"/>
                    <path d="M75.769,81.016C77.255,82.497 79.608,82.355 80.963,80.988C82.443,79.496 82.432,77.269 80.94,75.794C79.562,74.433 77.336,74.444 75.86,75.937C74.504,77.309 74.39,79.667 75.769,81.016" style="fill:url(#_Linear19);fill-rule:nonzero;"/>
                    <path d="M58.887,98.086C60.379,99.566 62.606,99.55 64.093,98.057C65.443,96.679 65.551,94.338 64.059,92.858C62.68,91.503 60.333,91.628 58.978,93.005C57.509,94.503 57.52,96.731 58.887,98.086" style="fill:url(#_Linear20);fill-rule:nonzero;"/>
                    <path d="M78.508,100.376C79.875,101.737 82.233,101.595 83.583,100.229C85.069,98.725 85.052,96.503 83.68,95.148C82.188,93.673 79.954,93.678 78.48,95.176C77.118,96.542 77.01,98.906 78.508,100.376" style="fill:url(#_Linear21);fill-rule:nonzero;"/>
                    <path d="M67.92,91.394C69.788,93.245 72.887,93.102 74.743,91.234C76.589,89.366 76.565,86.393 74.697,84.543C72.829,82.691 69.731,82.583 67.885,84.457C66.029,86.331 66.052,89.548 67.92,91.394" style="fill:url(#_Linear22);fill-rule:nonzero;"/>
                </g>
                <path d="M53.373,50.357C55.253,48.517 55.173,45.414 53.339,43.54C51.494,41.66 48.527,41.627 46.647,43.467C44.765,45.301 44.605,48.393 46.442,50.273C48.282,52.152 51.505,52.191 53.373,50.357" style="fill:url(#_Linear23);fill-rule:nonzero;"/>
                <path d="M72.841,70.281C74.721,68.447 74.76,65.469 72.932,63.593C71.087,61.708 67.989,61.554 66.109,63.388C64.23,65.222 64.196,68.447 66.03,70.326C67.863,72.206 70.961,72.121 72.841,70.281" style="fill:url(#_Linear24);fill-rule:nonzero;"/>
                <path d="M56.176,59.157C53.767,56.611 53.988,52.773 56.54,50.369C58.955,48.08 62.794,48.057 65.209,50.598C67.487,53.012 67.385,56.977 64.97,59.26C62.43,61.674 58.477,61.566 56.176,59.157M33.041,81.096C30.634,78.556 30.862,74.717 33.277,72.433C35.817,70.019 39.533,70.115 41.94,72.656C44.232,75.071 44.255,78.915 41.715,81.324C39.294,83.62 35.335,83.517 33.041,81.096" style="fill:url(#_Linear25);fill-rule:nonzero;"/>
                <g>
                    <path d="M84.79,44.229C85.679,43.386 87.171,43.431 88.128,44.439C88.971,45.334 88.925,46.815 88.048,47.658C87.028,48.633 85.542,48.592 84.699,47.698C83.73,46.683 83.776,45.197 84.79,44.229" style="fill:url(#_Linear26);fill-rule:nonzero;"/>
                    <path d="M69.39,27.814C70.278,26.971 71.771,27.005 72.614,27.894C73.582,28.914 73.537,30.388 72.648,31.244C71.634,32.212 70.142,32.166 69.179,31.152C68.336,30.251 68.376,28.777 69.39,27.814" style="fill:url(#_Linear27);fill-rule:nonzero;"/>
                    <path d="M77.17,22.187C77.893,21.498 79.106,21.532 79.795,22.255C80.581,23.087 80.553,24.289 79.818,24.978C78.998,25.77 77.79,25.73 76.999,24.904C76.31,24.175 76.344,22.973 77.17,22.187" style="fill:url(#_Linear28);fill-rule:nonzero;"/>
                    <path d="M91.682,37.064C92.411,36.38 93.619,36.41 94.308,37.132C95.088,37.964 95.06,39.177 94.336,39.861C93.504,40.646 92.297,40.613 91.511,39.787C90.827,39.063 90.851,37.85 91.682,37.064" style="fill:url(#_Linear29);fill-rule:nonzero;"/>
                    <path d="M88.686,25.867C89.575,25.018 91.061,25.058 91.905,25.947C92.754,26.836 92.708,28.328 91.819,29.171C90.805,30.128 89.313,30.094 88.47,29.205C87.632,28.321 87.672,26.829 88.686,25.867" style="fill:url(#_Linear30);fill-rule:nonzero;"/>
                    <path d="M75.939,51.855C77.454,50.415 79.812,50.602 81.139,52.003C82.579,53.524 82.523,55.745 80.996,57.197C79.6,58.524 77.373,58.462 75.921,56.94C74.595,55.546 74.538,53.182 75.939,51.855" style="fill:url(#_Linear31);fill-rule:nonzero;"/>
                    <path d="M59.422,34.444C60.943,33.004 63.17,33.054 64.622,34.581C65.949,35.982 66.006,38.329 64.479,39.781C63.079,41.108 60.732,40.926 59.405,39.525C57.964,37.998 58.021,35.771 59.422,34.444" style="fill:url(#_Linear32);fill-rule:nonzero;"/>
                    <path d="M79.071,32.558C80.478,31.226 82.831,31.419 84.164,32.815C85.61,34.336 85.542,36.568 84.146,37.896C82.614,39.342 80.387,39.291 78.946,37.759C77.619,36.363 77.557,34.005 79.071,32.558" style="fill:url(#_Linear33);fill-rule:nonzero;"/>
                    <path d="M68.312,41.318C70.22,39.519 73.313,39.718 75.124,41.621C76.93,43.535 76.844,46.502 74.941,48.308C73.033,50.12 69.94,50.164 68.129,48.256C66.325,46.347 66.41,43.13 68.312,41.318" style="fill:url(#_Linear34);fill-rule:nonzero;"/>
                </g>
                <g>
                    <path d="M27.291,100.792C26.425,101.669 26.439,103.155 27.431,104.135C28.308,105.001 29.795,104.995 30.658,104.118C31.646,103.121 31.635,101.635 30.763,100.774C29.766,99.794 28.285,99.794 27.291,100.792" style="fill:url(#_Linear35);fill-rule:nonzero;"/>
                    <path d="M11.189,85.06C10.335,85.932 10.335,87.418 11.211,88.279C12.211,89.269 13.691,89.258 14.56,88.386C15.545,87.39 15.528,85.903 14.54,84.912C13.664,84.046 12.178,84.064 11.189,85.06" style="fill:url(#_Linear36);fill-rule:nonzero;"/>
                    <path d="M5.408,92.715C4.708,93.433 4.713,94.634 5.42,95.34C6.237,96.15 7.45,96.138 8.148,95.426C8.96,94.617 8.948,93.405 8.131,92.601C7.422,91.901 6.211,91.907 5.408,92.715" style="fill:url(#_Linear37);fill-rule:nonzero;"/>
                    <path d="M19.986,107.541C19.285,108.253 19.288,109.455 20,110.161C20.812,110.964 22.022,110.959 22.725,110.252C23.525,109.432 23.525,108.225 22.705,107.428C21.997,106.72 20.789,106.72 19.986,107.541" style="fill:url(#_Linear38);fill-rule:nonzero;"/>
                    <path d="M8.849,104.305C7.992,105.177 7.992,106.663 8.869,107.534C9.737,108.388 11.229,108.383 12.095,107.506C13.066,106.515 13.063,105.023 12.198,104.157C11.323,103.303 9.834,103.315 8.849,104.305" style="fill:url(#_Linear39);fill-rule:nonzero;"/>
                    <path d="M35.102,92.1C33.624,93.592 33.761,95.945 35.131,97.3C36.631,98.78 38.856,98.769 40.331,97.277C41.692,95.899 41.678,93.673 40.183,92.197C38.815,90.835 36.455,90.727 35.102,92.1" style="fill:url(#_Linear40);fill-rule:nonzero;"/>
                    <path d="M18.033,75.224C16.555,76.722 16.572,78.949 18.061,80.424C19.439,81.779 21.786,81.888 23.261,80.396C24.616,79.023 24.491,76.67 23.118,75.315C21.624,73.84 19.388,73.851 18.033,75.224" style="fill:url(#_Linear41);fill-rule:nonzero;"/>
                    <path d="M15.746,94.839C14.382,96.212 14.524,98.569 15.892,99.925C17.387,101.401 19.614,101.389 20.973,100.023C22.456,98.513 22.445,96.292 20.947,94.811C19.576,93.461 17.218,93.347 15.746,94.839" style="fill:url(#_Linear42);fill-rule:nonzero;"/>
                    <path d="M24.719,84.257C22.874,86.131 23.016,89.23 24.884,91.074C26.755,92.93 29.731,92.902 31.571,91.034C33.422,89.166 33.533,86.068 31.665,84.222C29.791,82.372 26.57,82.395 24.719,84.257" style="fill:url(#_Linear43);fill-rule:nonzero;"/>
                </g>
            </g>
        </g>
        <g id="SvgjsG46672" transform="matrix(1.82527,0,0,1.82527,93.2983,-38.7728)">
            <path d="M12.28,32.03C12.28,32.63 12.15,33.2 11.89,33.74C11.63,34.28 11.267,34.757 10.8,35.17C10.333,35.583 9.78,35.913 9.14,36.16C8.5,36.407 7.793,36.53 7.02,36.53C6.327,36.53 5.703,36.49 5.15,36.41C4.597,36.33 4.077,36.203 3.59,36.03C3.103,35.857 2.637,35.633 2.19,35.36C1.743,35.087 1.28,34.757 0.8,34.37L3,32.15C3.64,32.683 4.267,33.06 4.88,33.28C5.493,33.5 6.16,33.61 6.88,33.61C7.173,33.61 7.45,33.567 7.71,33.48C7.97,33.393 8.197,33.277 8.39,33.13C8.583,32.983 8.737,32.81 8.85,32.61C8.963,32.41 9.02,32.19 9.02,31.95C9.02,31.697 8.973,31.47 8.88,31.27C8.787,31.07 8.62,30.877 8.38,30.69C8.14,30.503 7.807,30.313 7.38,30.12C6.953,29.927 6.407,29.71 5.74,29.47C5.153,29.257 4.59,29.013 4.05,28.74C3.51,28.467 3.037,28.137 2.63,27.75C2.223,27.363 1.897,26.91 1.65,26.39C1.403,25.87 1.28,25.257 1.28,24.55C1.28,23.87 1.417,23.243 1.69,22.67C1.963,22.097 2.337,21.607 2.81,21.2C3.283,20.793 3.837,20.477 4.47,20.25C5.103,20.023 5.787,19.91 6.52,19.91C7.747,19.91 8.78,20.07 9.62,20.39C10.46,20.71 11.207,21.177 11.86,21.79L9.7,23.97C9.3,23.583 8.853,23.287 8.36,23.08C7.867,22.873 7.287,22.77 6.62,22.77C6.313,22.77 6.03,22.817 5.77,22.91C5.51,23.003 5.287,23.127 5.1,23.28C4.913,23.433 4.763,23.613 4.65,23.82C4.537,24.027 4.48,24.243 4.48,24.47C4.48,24.723 4.533,24.953 4.64,25.16C4.747,25.367 4.927,25.567 5.18,25.76C5.433,25.953 5.77,26.147 6.19,26.34C6.61,26.533 7.133,26.743 7.76,26.97C8.56,27.25 9.247,27.557 9.82,27.89C10.393,28.223 10.86,28.59 11.22,28.99C11.58,29.39 11.847,29.84 12.02,30.34C12.193,30.84 12.28,31.403 12.28,32.03ZM30.654,24.65L26.774,36.25L24.274,36.25L21.974,29.35L19.674,36.25L17.174,36.25L13.274,24.65L16.314,24.65L18.494,31.89L20.674,24.65L23.234,24.65L25.434,31.89L27.614,24.65L30.654,24.65ZM35.428,22.65L32.428,22.65L32.428,19.65L35.428,19.65L35.428,22.65ZM35.388,36.23L32.468,36.23L32.468,24.65L35.388,24.65L35.388,36.23ZM46.962,32.99C46.962,33.563 46.829,34.073 46.562,34.52C46.295,34.967 45.949,35.34 45.522,35.64C45.095,35.94 44.615,36.167 44.082,36.32C43.549,36.473 43.022,36.55 42.502,36.55C41.622,36.55 40.812,36.387 40.072,36.06C39.332,35.733 38.682,35.21 38.122,34.49L39.862,32.73C40.209,33.17 40.609,33.513 41.062,33.76C41.515,34.007 42.002,34.13 42.522,34.13C42.975,34.13 43.352,34.047 43.652,33.88C43.952,33.713 44.102,33.463 44.102,33.13C44.102,32.783 43.889,32.493 43.462,32.26C43.035,32.027 42.435,31.797 41.662,31.57C41.209,31.437 40.769,31.267 40.342,31.06C39.915,30.853 39.535,30.6 39.202,30.3C38.869,30 38.602,29.657 38.402,29.27C38.202,28.883 38.102,28.437 38.102,27.93C38.102,27.37 38.232,26.867 38.492,26.42C38.752,25.973 39.092,25.6 39.512,25.3C39.932,25 40.409,24.77 40.942,24.61C41.475,24.45 42.015,24.37 42.562,24.37C44.322,24.37 45.762,25.037 46.882,26.37L45.162,28.11C44.829,27.697 44.449,27.37 44.022,27.13C43.595,26.89 43.129,26.77 42.622,26.77C42.449,26.77 42.265,26.793 42.072,26.84C41.879,26.887 41.699,26.953 41.532,27.04C41.365,27.127 41.229,27.24 41.122,27.38C41.015,27.52 40.962,27.677 40.962,27.85C40.962,28.157 41.165,28.423 41.572,28.65C41.979,28.877 42.562,29.103 43.322,29.33C43.815,29.477 44.282,29.663 44.722,29.89C45.162,30.117 45.549,30.38 45.882,30.68C46.215,30.98 46.479,31.32 46.672,31.7C46.865,32.08 46.962,32.51 46.962,32.99ZM57.696,32.99C57.696,33.563 57.563,34.073 57.296,34.52C57.029,34.967 56.683,35.34 56.256,35.64C55.829,35.94 55.349,36.167 54.816,36.32C54.283,36.473 53.756,36.55 53.236,36.55C52.356,36.55 51.546,36.387 50.806,36.06C50.066,35.733 49.416,35.21 48.856,34.49L50.596,32.73C50.943,33.17 51.343,33.513 51.796,33.76C52.249,34.007 52.736,34.13 53.256,34.13C53.709,34.13 54.086,34.047 54.386,33.88C54.686,33.713 54.836,33.463 54.836,33.13C54.836,32.783 54.623,32.493 54.196,32.26C53.769,32.027 53.169,31.797 52.396,31.57C51.943,31.437 51.503,31.267 51.076,31.06C50.649,30.853 50.269,30.6 49.936,30.3C49.603,30 49.336,29.657 49.136,29.27C48.936,28.883 48.836,28.437 48.836,27.93C48.836,27.37 48.966,26.867 49.226,26.42C49.486,25.973 49.826,25.6 50.246,25.3C50.666,25 51.143,24.77 51.676,24.61C52.209,24.45 52.749,24.37 53.296,24.37C55.056,24.37 56.496,25.037 57.616,26.37L55.896,28.11C55.563,27.697 55.183,27.37 54.756,27.13C54.329,26.89 53.863,26.77 53.356,26.77C53.183,26.77 52.999,26.793 52.806,26.84C52.613,26.887 52.433,26.953 52.266,27.04C52.099,27.127 51.963,27.24 51.856,27.38C51.749,27.52 51.696,27.677 51.696,27.85C51.696,28.157 51.899,28.423 52.306,28.65C52.713,28.877 53.296,29.103 54.056,29.33C54.549,29.477 55.016,29.663 55.456,29.89C55.896,30.117 56.283,30.38 56.616,30.68C56.949,30.98 57.213,31.32 57.406,31.7C57.599,32.08 57.696,32.51 57.696,32.99ZM71.57,25.61C71.57,26.37 71.427,27.08 71.14,27.74C70.853,28.4 70.463,28.973 69.97,29.46C69.477,29.947 68.897,30.327 68.23,30.6C67.563,30.873 66.857,31.01 66.11,31.01L63.47,31.01L63.47,36.23L60.37,36.23L60.37,20.25L66.11,20.25C66.857,20.25 67.563,20.387 68.23,20.66C68.897,20.933 69.477,21.31 69.97,21.79C70.463,22.27 70.853,22.837 71.14,23.49C71.427,24.143 71.57,24.85 71.57,25.61ZM68.49,25.57C68.49,25.157 68.413,24.77 68.26,24.41C68.107,24.05 67.897,23.737 67.63,23.47C67.363,23.203 67.05,22.99 66.69,22.83C66.33,22.67 65.943,22.59 65.53,22.59L63.47,22.59L63.47,28.63L65.53,28.63C65.943,28.63 66.33,28.547 66.69,28.38C67.05,28.213 67.363,27.99 67.63,27.71C67.897,27.43 68.107,27.107 68.26,26.74C68.413,26.373 68.49,25.983 68.49,25.57ZM88.684,33.35C87.884,34.323 86.914,35.097 85.774,35.67C84.634,36.243 83.377,36.53 82.004,36.53C80.817,36.53 79.704,36.313 78.664,35.88C77.624,35.447 76.717,34.857 75.944,34.11C75.171,33.363 74.561,32.487 74.114,31.48C73.667,30.473 73.444,29.39 73.444,28.23C73.444,27.07 73.667,25.987 74.114,24.98C74.561,23.973 75.171,23.093 75.944,22.34C76.717,21.587 77.624,20.997 78.664,20.57C79.704,20.143 80.817,19.93 82.004,19.93C83.377,19.93 84.634,20.217 85.774,20.79C86.914,21.363 87.864,22.11 88.624,23.03L86.484,25.23C85.991,24.523 85.354,23.953 84.574,23.52C83.794,23.087 82.937,22.87 82.004,22.87C81.257,22.87 80.554,23.013 79.894,23.3C79.234,23.587 78.657,23.973 78.164,24.46C77.671,24.947 77.281,25.513 76.994,26.16C76.707,26.807 76.564,27.497 76.564,28.23C76.564,28.95 76.707,29.633 76.994,30.28C77.281,30.927 77.671,31.493 78.164,31.98C78.657,32.467 79.234,32.853 79.894,33.14C80.554,33.427 81.257,33.57 82.004,33.57C82.991,33.57 83.864,33.347 84.624,32.9C85.384,32.453 86.017,31.863 86.524,31.13L88.684,33.35ZM101.318,22.91L93.798,22.91L93.798,26.63L101.218,26.63L101.218,29.15L93.798,29.15L93.798,36.23L90.758,36.23L90.758,20.25L101.318,20.25L101.318,22.91ZM109.072,31.03L102.792,31.03L102.792,28.35L109.072,28.35L109.072,31.03ZM125.046,36.23L122.006,36.23L114.786,25.01L114.786,36.23L111.746,36.23L111.746,20.23L115.226,20.23L122.006,30.67L122.006,20.23L125.046,20.23L125.046,36.23ZM139.08,36.23L128.52,36.23L128.52,20.25L139.08,20.25L139.08,22.81L131.56,22.81L131.56,26.63L138.98,26.63L138.98,29.13L131.56,29.13L131.56,33.53L139.08,33.53L139.08,36.23ZM152.934,23.01L148.514,23.01L148.514,36.23L145.374,36.23L145.374,23.01L140.954,23.01L140.954,20.25L152.934,20.25L152.934,23.01Z" style="fill:rgb(17,17,17);fill-rule:nonzero;"/>
        </g>
        <g id="SvgjsG46673" transform="matrix(0.590389,0,0,0.590389,94.2862,28.2765)">
            <path d="M12.28,32.03C12.28,32.63 12.15,33.2 11.89,33.74C11.63,34.28 11.267,34.757 10.8,35.17C10.333,35.583 9.78,35.913 9.14,36.16C8.5,36.407 7.793,36.53 7.02,36.53C6.327,36.53 5.703,36.49 5.15,36.41C4.597,36.33 4.077,36.203 3.59,36.03C3.103,35.857 2.637,35.633 2.19,35.36C1.743,35.087 1.28,34.757 0.8,34.37L3,32.15C3.64,32.683 4.267,33.06 4.88,33.28C5.493,33.5 6.16,33.61 6.88,33.61C7.173,33.61 7.45,33.567 7.71,33.48C7.97,33.393 8.197,33.277 8.39,33.13C8.583,32.983 8.737,32.81 8.85,32.61C8.963,32.41 9.02,32.19 9.02,31.95C9.02,31.697 8.973,31.47 8.88,31.27C8.787,31.07 8.62,30.877 8.38,30.69C8.14,30.503 7.807,30.313 7.38,30.12C6.953,29.927 6.407,29.71 5.74,29.47C5.153,29.257 4.59,29.013 4.05,28.74C3.51,28.467 3.037,28.137 2.63,27.75C2.223,27.363 1.897,26.91 1.65,26.39C1.403,25.87 1.28,25.257 1.28,24.55C1.28,23.87 1.417,23.243 1.69,22.67C1.963,22.097 2.337,21.607 2.81,21.2C3.283,20.793 3.837,20.477 4.47,20.25C5.103,20.023 5.787,19.91 6.52,19.91C7.747,19.91 8.78,20.07 9.62,20.39C10.46,20.71 11.207,21.177 11.86,21.79L9.7,23.97C9.3,23.583 8.853,23.287 8.36,23.08C7.867,22.873 7.287,22.77 6.62,22.77C6.313,22.77 6.03,22.817 5.77,22.91C5.51,23.003 5.287,23.127 5.1,23.28C4.913,23.433 4.763,23.613 4.65,23.82C4.537,24.027 4.48,24.243 4.48,24.47C4.48,24.723 4.533,24.953 4.64,25.16C4.747,25.367 4.927,25.567 5.18,25.76C5.433,25.953 5.77,26.147 6.19,26.34C6.61,26.533 7.133,26.743 7.76,26.97C8.56,27.25 9.247,27.557 9.82,27.89C10.393,28.223 10.86,28.59 11.22,28.99C11.58,29.39 11.847,29.84 12.02,30.34C12.193,30.84 12.28,31.403 12.28,32.03ZM33.972,20.23L28.772,36.23L26.052,36.23L23.112,26.35L20.152,36.23L17.432,36.23L12.232,20.23L15.512,20.23L18.892,30.57L21.812,20.23L24.372,20.23L27.292,30.59L30.712,20.23L33.972,20.23ZM37.824,36.23L34.724,36.23L34.724,20.25L37.824,20.25L37.824,36.23ZM50.556,32.03C50.556,32.63 50.426,33.2 50.166,33.74C49.906,34.28 49.543,34.757 49.076,35.17C48.609,35.583 48.056,35.913 47.416,36.16C46.776,36.407 46.069,36.53 45.296,36.53C44.603,36.53 43.979,36.49 43.426,36.41C42.873,36.33 42.353,36.203 41.866,36.03C41.379,35.857 40.913,35.633 40.466,35.36C40.019,35.087 39.556,34.757 39.076,34.37L41.276,32.15C41.916,32.683 42.543,33.06 43.156,33.28C43.769,33.5 44.436,33.61 45.156,33.61C45.449,33.61 45.726,33.567 45.986,33.48C46.246,33.393 46.473,33.277 46.666,33.13C46.859,32.983 47.013,32.81 47.126,32.61C47.239,32.41 47.296,32.19 47.296,31.95C47.296,31.697 47.249,31.47 47.156,31.27C47.063,31.07 46.896,30.877 46.656,30.69C46.416,30.503 46.083,30.313 45.656,30.12C45.229,29.927 44.683,29.71 44.016,29.47C43.429,29.257 42.866,29.013 42.326,28.74C41.786,28.467 41.313,28.137 40.906,27.75C40.499,27.363 40.173,26.91 39.926,26.39C39.679,25.87 39.556,25.257 39.556,24.55C39.556,23.87 39.693,23.243 39.966,22.67C40.239,22.097 40.613,21.607 41.086,21.2C41.559,20.793 42.113,20.477 42.746,20.25C43.379,20.023 44.063,19.91 44.796,19.91C46.023,19.91 47.056,20.07 47.896,20.39C48.736,20.71 49.483,21.177 50.136,21.79L47.976,23.97C47.576,23.583 47.129,23.287 46.636,23.08C46.143,22.873 45.563,22.77 44.896,22.77C44.589,22.77 44.306,22.817 44.046,22.91C43.786,23.003 43.563,23.127 43.376,23.28C43.189,23.433 43.039,23.613 42.926,23.82C42.813,24.027 42.756,24.243 42.756,24.47C42.756,24.723 42.809,24.953 42.916,25.16C43.023,25.367 43.203,25.567 43.456,25.76C43.709,25.953 44.046,26.147 44.466,26.34C44.886,26.533 45.409,26.743 46.036,26.97C46.836,27.25 47.523,27.557 48.096,27.89C48.669,28.223 49.136,28.59 49.496,28.99C49.856,29.39 50.123,29.84 50.296,30.34C50.469,30.84 50.556,31.403 50.556,32.03ZM62.488,32.03C62.488,32.63 62.358,33.2 62.098,33.74C61.838,34.28 61.475,34.757 61.008,35.17C60.541,35.583 59.988,35.913 59.348,36.16C58.708,36.407 58.001,36.53 57.228,36.53C56.535,36.53 55.911,36.49 55.358,36.41C54.805,36.33 54.285,36.203 53.798,36.03C53.311,35.857 52.845,35.633 52.398,35.36C51.951,35.087 51.488,34.757 51.008,34.37L53.208,32.15C53.848,32.683 54.475,33.06 55.088,33.28C55.701,33.5 56.368,33.61 57.088,33.61C57.381,33.61 57.658,33.567 57.918,33.48C58.178,33.393 58.405,33.277 58.598,33.13C58.791,32.983 58.945,32.81 59.058,32.61C59.171,32.41 59.228,32.19 59.228,31.95C59.228,31.697 59.181,31.47 59.088,31.27C58.995,31.07 58.828,30.877 58.588,30.69C58.348,30.503 58.015,30.313 57.588,30.12C57.161,29.927 56.615,29.71 55.948,29.47C55.361,29.257 54.798,29.013 54.258,28.74C53.718,28.467 53.245,28.137 52.838,27.75C52.431,27.363 52.105,26.91 51.858,26.39C51.611,25.87 51.488,25.257 51.488,24.55C51.488,23.87 51.625,23.243 51.898,22.67C52.171,22.097 52.545,21.607 53.018,21.2C53.491,20.793 54.045,20.477 54.678,20.25C55.311,20.023 55.995,19.91 56.728,19.91C57.955,19.91 58.988,20.07 59.828,20.39C60.668,20.71 61.415,21.177 62.068,21.79L59.908,23.97C59.508,23.583 59.061,23.287 58.568,23.08C58.075,22.873 57.495,22.77 56.828,22.77C56.521,22.77 56.238,22.817 55.978,22.91C55.718,23.003 55.495,23.127 55.308,23.28C55.121,23.433 54.971,23.613 54.858,23.82C54.745,24.027 54.688,24.243 54.688,24.47C54.688,24.723 54.741,24.953 54.848,25.16C54.955,25.367 55.135,25.567 55.388,25.76C55.641,25.953 55.978,26.147 56.398,26.34C56.818,26.533 57.341,26.743 57.968,26.97C58.768,27.25 59.455,27.557 60.028,27.89C60.601,28.223 61.068,28.59 61.428,28.99C61.788,29.39 62.055,29.84 62.228,30.34C62.401,30.84 62.488,31.403 62.488,32.03ZM80.292,25.61C80.292,26.37 80.149,27.08 79.862,27.74C79.575,28.4 79.185,28.973 78.692,29.46C78.199,29.947 77.619,30.327 76.952,30.6C76.285,30.873 75.579,31.01 74.832,31.01L72.192,31.01L72.192,36.23L69.092,36.23L69.092,20.25L74.832,20.25C75.579,20.25 76.285,20.387 76.952,20.66C77.619,20.933 78.199,21.31 78.692,21.79C79.185,22.27 79.575,22.837 79.862,23.49C80.149,24.143 80.292,24.85 80.292,25.61ZM77.212,25.57C77.212,25.157 77.135,24.77 76.982,24.41C76.829,24.05 76.619,23.737 76.352,23.47C76.085,23.203 75.772,22.99 75.412,22.83C75.052,22.67 74.665,22.59 74.252,22.59L72.192,22.59L72.192,28.63L74.252,28.63C74.665,28.63 75.052,28.547 75.412,28.38C75.772,28.213 76.085,27.99 76.352,27.71C76.619,27.43 76.829,27.107 76.982,26.74C77.135,26.373 77.212,25.983 77.212,25.57ZM93.384,36.23L89.964,36.23L88.824,32.59C88.704,32.19 88.554,31.823 88.374,31.49C88.194,31.157 87.977,30.87 87.724,30.63C87.471,30.39 87.167,30.203 86.814,30.07C86.461,29.937 86.044,29.87 85.564,29.87L84.404,29.87L84.404,36.23L81.344,36.23L81.344,20.25L87.664,20.23C88.344,20.23 88.977,20.347 89.564,20.58C90.151,20.813 90.657,21.137 91.084,21.55C91.511,21.963 91.844,22.45 92.084,23.01C92.324,23.57 92.444,24.177 92.444,24.83C92.444,25.297 92.371,25.75 92.224,26.19C92.077,26.63 91.871,27.037 91.604,27.41C91.337,27.783 91.021,28.113 90.654,28.4C90.287,28.687 89.884,28.903 89.444,29.05C89.951,29.237 90.364,29.507 90.684,29.86C91.004,30.213 91.257,30.637 91.444,31.13C91.537,31.357 91.624,31.583 91.704,31.81C91.784,32.037 91.867,32.273 91.954,32.52C92.041,32.767 92.134,33.033 92.234,33.32C92.334,33.607 92.444,33.923 92.564,34.27C92.711,34.71 92.847,35.087 92.974,35.4C93.101,35.713 93.237,35.99 93.384,36.23ZM89.324,25.05C89.324,24.677 89.254,24.337 89.114,24.03C88.974,23.723 88.784,23.457 88.544,23.23C88.304,23.003 88.021,22.827 87.694,22.7C87.367,22.573 87.017,22.51 86.644,22.51L84.404,22.51L84.404,27.49L86.644,27.49C87.017,27.49 87.367,27.433 87.694,27.32C88.021,27.207 88.304,27.043 88.544,26.83C88.784,26.617 88.974,26.36 89.114,26.06C89.254,25.76 89.324,25.423 89.324,25.05ZM110.716,28.23C110.716,29.377 110.493,30.457 110.046,31.47C109.599,32.483 108.989,33.363 108.216,34.11C107.443,34.857 106.543,35.447 105.516,35.88C104.489,36.313 103.396,36.53 102.236,36.53C101.076,36.53 99.979,36.313 98.946,35.88C97.913,35.447 97.009,34.857 96.236,34.11C95.463,33.363 94.853,32.487 94.406,31.48C93.959,30.473 93.736,29.39 93.736,28.23C93.736,27.07 93.959,25.983 94.406,24.97C94.853,23.957 95.463,23.077 96.236,22.33C97.009,21.583 97.913,20.997 98.946,20.57C99.979,20.143 101.076,19.93 102.236,19.93C103.396,19.93 104.489,20.143 105.516,20.57C106.543,20.997 107.443,21.587 108.216,22.34C108.989,23.093 109.599,23.973 110.046,24.98C110.493,25.987 110.716,27.07 110.716,28.23ZM107.596,28.23C107.596,27.497 107.456,26.807 107.176,26.16C106.896,25.513 106.513,24.947 106.026,24.46C105.539,23.973 104.969,23.587 104.316,23.3C103.663,23.013 102.969,22.87 102.236,22.87C101.489,22.87 100.789,23.013 100.136,23.3C99.483,23.587 98.913,23.973 98.426,24.46C97.939,24.947 97.556,25.513 97.276,26.16C96.996,26.807 96.856,27.497 96.856,28.23C96.856,28.95 96.996,29.637 97.276,30.29C97.556,30.943 97.939,31.513 98.426,32C98.913,32.487 99.483,32.873 100.136,33.16C100.789,33.447 101.489,33.59 102.236,33.59C102.969,33.59 103.663,33.447 104.316,33.16C104.969,32.873 105.539,32.487 106.026,32C106.513,31.513 106.896,30.943 107.176,30.29C107.456,29.637 107.596,28.95 107.596,28.23ZM122.268,23.01L117.848,23.01L117.848,36.23L114.708,36.23L114.708,23.01L110.288,23.01L110.288,20.25L122.268,20.25L122.268,23.01ZM133.88,36.23L123.32,36.23L123.32,20.25L133.88,20.25L133.88,22.81L126.36,22.81L126.36,26.63L133.78,26.63L133.78,29.13L126.36,29.13L126.36,33.53L133.88,33.53L133.88,36.23ZM151.712,28.23C151.712,29.377 151.489,30.457 151.042,31.47C150.595,32.483 149.985,33.363 149.212,34.11C148.439,34.857 147.539,35.447 146.512,35.88C145.485,36.313 144.392,36.53 143.232,36.53C142.072,36.53 140.975,36.313 139.942,35.88C138.909,35.447 138.005,34.857 137.232,34.11C136.459,33.363 135.849,32.487 135.402,31.48C134.955,30.473 134.732,29.39 134.732,28.23C134.732,27.07 134.955,25.983 135.402,24.97C135.849,23.957 136.459,23.077 137.232,22.33C138.005,21.583 138.909,20.997 139.942,20.57C140.975,20.143 142.072,19.93 143.232,19.93C144.392,19.93 145.485,20.143 146.512,20.57C147.539,20.997 148.439,21.587 149.212,22.34C149.985,23.093 150.595,23.973 151.042,24.98C151.489,25.987 151.712,27.07 151.712,28.23ZM148.592,28.23C148.592,27.497 148.452,26.807 148.172,26.16C147.892,25.513 147.509,24.947 147.022,24.46C146.535,23.973 145.965,23.587 145.312,23.3C144.659,23.013 143.965,22.87 143.232,22.87C142.485,22.87 141.785,23.013 141.132,23.3C140.479,23.587 139.909,23.973 139.422,24.46C138.935,24.947 138.552,25.513 138.272,26.16C137.992,26.807 137.852,27.497 137.852,28.23C137.852,28.95 137.992,29.637 138.272,30.29C138.552,30.943 138.935,31.513 139.422,32C139.909,32.487 140.479,32.873 141.132,33.16C141.785,33.447 142.485,33.59 143.232,33.59C143.965,33.59 144.659,33.447 145.312,33.16C145.965,32.873 146.535,32.487 147.022,32C147.509,31.513 147.892,30.943 148.172,30.29C148.452,29.637 148.592,28.95 148.592,28.23ZM169.124,36.23L166.084,36.23L166.084,25.55L161.044,34.05L156.204,25.47L156.204,36.23L153.164,36.23L153.164,20.23L156.664,20.23L161.104,28.17L165.744,20.23L169.124,20.23L169.124,36.23ZM174.276,36.23L171.176,36.23L171.176,20.25L174.276,20.25L174.276,36.23ZM190.968,33.35C190.168,34.323 189.198,35.097 188.058,35.67C186.918,36.243 185.661,36.53 184.288,36.53C183.101,36.53 181.988,36.313 180.948,35.88C179.908,35.447 179.001,34.857 178.228,34.11C177.455,33.363 176.845,32.487 176.398,31.48C175.951,30.473 175.728,29.39 175.728,28.23C175.728,27.07 175.951,25.987 176.398,24.98C176.845,23.973 177.455,23.093 178.228,22.34C179.001,21.587 179.908,20.997 180.948,20.57C181.988,20.143 183.101,19.93 184.288,19.93C185.661,19.93 186.918,20.217 188.058,20.79C189.198,21.363 190.148,22.11 190.908,23.03L188.768,25.23C188.275,24.523 187.638,23.953 186.858,23.52C186.078,23.087 185.221,22.87 184.288,22.87C183.541,22.87 182.838,23.013 182.178,23.3C181.518,23.587 180.941,23.973 180.448,24.46C179.955,24.947 179.565,25.513 179.278,26.16C178.991,26.807 178.848,27.497 178.848,28.23C178.848,28.95 178.991,29.633 179.278,30.28C179.565,30.927 179.955,31.493 180.448,31.98C180.941,32.467 181.518,32.853 182.178,33.14C182.838,33.427 183.541,33.57 184.288,33.57C185.275,33.57 186.148,33.347 186.908,32.9C187.668,32.453 188.301,31.863 188.808,31.13L190.968,33.35ZM202.3,32.03C202.3,32.63 202.17,33.2 201.91,33.74C201.65,34.28 201.287,34.757 200.82,35.17C200.353,35.583 199.8,35.913 199.16,36.16C198.52,36.407 197.813,36.53 197.04,36.53C196.347,36.53 195.723,36.49 195.17,36.41C194.617,36.33 194.097,36.203 193.61,36.03C193.123,35.857 192.657,35.633 192.21,35.36C191.763,35.087 191.3,34.757 190.82,34.37L193.02,32.15C193.66,32.683 194.287,33.06 194.9,33.28C195.513,33.5 196.18,33.61 196.9,33.61C197.193,33.61 197.47,33.567 197.73,33.48C197.99,33.393 198.217,33.277 198.41,33.13C198.603,32.983 198.757,32.81 198.87,32.61C198.983,32.41 199.04,32.19 199.04,31.95C199.04,31.697 198.993,31.47 198.9,31.27C198.807,31.07 198.64,30.877 198.4,30.69C198.16,30.503 197.827,30.313 197.4,30.12C196.973,29.927 196.427,29.71 195.76,29.47C195.173,29.257 194.61,29.013 194.07,28.74C193.53,28.467 193.057,28.137 192.65,27.75C192.243,27.363 191.917,26.91 191.67,26.39C191.423,25.87 191.3,25.257 191.3,24.55C191.3,23.87 191.437,23.243 191.71,22.67C191.983,22.097 192.357,21.607 192.83,21.2C193.303,20.793 193.857,20.477 194.49,20.25C195.123,20.023 195.807,19.91 196.54,19.91C197.767,19.91 198.8,20.07 199.64,20.39C200.48,20.71 201.227,21.177 201.88,21.79L199.72,23.97C199.32,23.583 198.873,23.287 198.38,23.08C197.887,22.873 197.307,22.77 196.64,22.77C196.333,22.77 196.05,22.817 195.79,22.91C195.53,23.003 195.307,23.127 195.12,23.28C194.933,23.433 194.783,23.613 194.67,23.82C194.557,24.027 194.5,24.243 194.5,24.47C194.5,24.723 194.553,24.953 194.66,25.16C194.767,25.367 194.947,25.567 195.2,25.76C195.453,25.953 195.79,26.147 196.21,26.34C196.63,26.533 197.153,26.743 197.78,26.97C198.58,27.25 199.267,27.557 199.84,27.89C200.413,28.223 200.88,28.59 201.24,28.99C201.6,29.39 201.867,29.84 202.04,30.34C202.213,30.84 202.3,31.403 202.3,32.03ZM223.544,33.35C222.744,34.323 221.774,35.097 220.634,35.67C219.494,36.243 218.237,36.53 216.864,36.53C215.677,36.53 214.564,36.313 213.524,35.88C212.484,35.447 211.577,34.857 210.804,34.11C210.031,33.363 209.421,32.487 208.974,31.48C208.527,30.473 208.304,29.39 208.304,28.23C208.304,27.07 208.527,25.987 208.974,24.98C209.421,23.973 210.031,23.093 210.804,22.34C211.577,21.587 212.484,20.997 213.524,20.57C214.564,20.143 215.677,19.93 216.864,19.93C218.237,19.93 219.494,20.217 220.634,20.79C221.774,21.363 222.724,22.11 223.484,23.03L221.344,25.23C220.851,24.523 220.214,23.953 219.434,23.52C218.654,23.087 217.797,22.87 216.864,22.87C216.117,22.87 215.414,23.013 214.754,23.3C214.094,23.587 213.517,23.973 213.024,24.46C212.531,24.947 212.141,25.513 211.854,26.16C211.567,26.807 211.424,27.497 211.424,28.23C211.424,28.95 211.567,29.633 211.854,30.28C212.141,30.927 212.531,31.493 213.024,31.98C213.517,32.467 214.094,32.853 214.754,33.14C215.414,33.427 216.117,33.57 216.864,33.57C217.851,33.57 218.724,33.347 219.484,32.9C220.244,32.453 220.877,31.863 221.384,31.13L223.544,33.35ZM239.916,28.23C239.916,29.377 239.693,30.457 239.246,31.47C238.799,32.483 238.189,33.363 237.416,34.11C236.643,34.857 235.743,35.447 234.716,35.88C233.689,36.313 232.596,36.53 231.436,36.53C230.276,36.53 229.179,36.313 228.146,35.88C227.113,35.447 226.209,34.857 225.436,34.11C224.663,33.363 224.053,32.487 223.606,31.48C223.159,30.473 222.936,29.39 222.936,28.23C222.936,27.07 223.159,25.983 223.606,24.97C224.053,23.957 224.663,23.077 225.436,22.33C226.209,21.583 227.113,20.997 228.146,20.57C229.179,20.143 230.276,19.93 231.436,19.93C232.596,19.93 233.689,20.143 234.716,20.57C235.743,20.997 236.643,21.587 237.416,22.34C238.189,23.093 238.799,23.973 239.246,24.98C239.693,25.987 239.916,27.07 239.916,28.23ZM236.796,28.23C236.796,27.497 236.656,26.807 236.376,26.16C236.096,25.513 235.713,24.947 235.226,24.46C234.739,23.973 234.169,23.587 233.516,23.3C232.863,23.013 232.169,22.87 231.436,22.87C230.689,22.87 229.989,23.013 229.336,23.3C228.683,23.587 228.113,23.973 227.626,24.46C227.139,24.947 226.756,25.513 226.476,26.16C226.196,26.807 226.056,27.497 226.056,28.23C226.056,28.95 226.196,29.637 226.476,30.29C226.756,30.943 227.139,31.513 227.626,32C228.113,32.487 228.683,32.873 229.336,33.16C229.989,33.447 230.689,33.59 231.436,33.59C232.169,33.59 232.863,33.447 233.516,33.16C234.169,32.873 234.739,32.487 235.226,32C235.713,31.513 236.096,30.943 236.376,30.29C236.656,29.637 236.796,28.95 236.796,28.23ZM253.408,36.23L249.988,36.23L248.848,32.59C248.728,32.19 248.578,31.823 248.398,31.49C248.218,31.157 248.001,30.87 247.748,30.63C247.495,30.39 247.191,30.203 246.838,30.07C246.485,29.937 246.068,29.87 245.588,29.87L244.428,29.87L244.428,36.23L241.368,36.23L241.368,20.25L247.688,20.23C248.368,20.23 249.001,20.347 249.588,20.58C250.175,20.813 250.681,21.137 251.108,21.55C251.535,21.963 251.868,22.45 252.108,23.01C252.348,23.57 252.468,24.177 252.468,24.83C252.468,25.297 252.395,25.75 252.248,26.19C252.101,26.63 251.895,27.037 251.628,27.41C251.361,27.783 251.045,28.113 250.678,28.4C250.311,28.687 249.908,28.903 249.468,29.05C249.975,29.237 250.388,29.507 250.708,29.86C251.028,30.213 251.281,30.637 251.468,31.13C251.561,31.357 251.648,31.583 251.728,31.81C251.808,32.037 251.891,32.273 251.978,32.52C252.065,32.767 252.158,33.033 252.258,33.32C252.358,33.607 252.468,33.923 252.588,34.27C252.735,34.71 252.871,35.087 252.998,35.4C253.125,35.713 253.261,35.99 253.408,36.23ZM249.348,25.05C249.348,24.677 249.278,24.337 249.138,24.03C248.998,23.723 248.808,23.457 248.568,23.23C248.328,23.003 248.045,22.827 247.718,22.7C247.391,22.573 247.041,22.51 246.668,22.51L244.428,22.51L244.428,27.49L246.668,27.49C247.041,27.49 247.391,27.433 247.718,27.32C248.045,27.207 248.328,27.043 248.568,26.83C248.808,26.617 248.998,26.36 249.138,26.06C249.278,25.76 249.348,25.423 249.348,25.05ZM264.92,36.23L254.36,36.23L254.36,20.25L264.92,20.25L264.92,22.81L257.4,22.81L257.4,26.63L264.82,26.63L264.82,29.13L257.4,29.13L257.4,33.53L264.92,33.53L264.92,36.23ZM282.284,22.91L274.764,22.91L274.764,26.63L282.184,26.63L282.184,29.15L274.764,29.15L274.764,36.23L271.724,36.23L271.724,20.25L282.284,20.25L282.284,22.91ZM297.476,36.23L294.076,36.23L292.596,33.03L284.836,33.03L283.336,36.23L279.936,36.23L287.496,20.23L289.916,20.23L297.476,36.23ZM291.376,30.45L288.716,24.69L286.016,30.45L291.376,30.45ZM311.468,33.35C310.668,34.323 309.698,35.097 308.558,35.67C307.418,36.243 306.161,36.53 304.788,36.53C303.601,36.53 302.488,36.313 301.448,35.88C300.408,35.447 299.501,34.857 298.728,34.11C297.955,33.363 297.345,32.487 296.898,31.48C296.451,30.473 296.228,29.39 296.228,28.23C296.228,27.07 296.451,25.987 296.898,24.98C297.345,23.973 297.955,23.093 298.728,22.34C299.501,21.587 300.408,20.997 301.448,20.57C302.488,20.143 303.601,19.93 304.788,19.93C306.161,19.93 307.418,20.217 308.558,20.79C309.698,21.363 310.648,22.11 311.408,23.03L309.268,25.23C308.775,24.523 308.138,23.953 307.358,23.52C306.578,23.087 305.721,22.87 304.788,22.87C304.041,22.87 303.338,23.013 302.678,23.3C302.018,23.587 301.441,23.973 300.948,24.46C300.455,24.947 300.065,25.513 299.778,26.16C299.491,26.807 299.348,27.497 299.348,28.23C299.348,28.95 299.491,29.633 299.778,30.28C300.065,30.927 300.455,31.493 300.948,31.98C301.441,32.467 302.018,32.853 302.678,33.14C303.338,33.427 304.041,33.57 304.788,33.57C305.775,33.57 306.648,33.347 307.408,32.9C308.168,32.453 308.801,31.863 309.308,31.13L311.468,33.35ZM315.22,36.23L312.12,36.23L312.12,20.25L315.22,20.25L315.22,36.23ZM328.092,36.23L317.272,36.23L317.272,20.25L320.432,20.25L320.432,33.23L328.092,33.23L328.092,36.23ZM332.044,36.23L328.944,36.23L328.944,20.25L332.044,20.25L332.044,36.23ZM345.076,23.01L340.656,23.01L340.656,36.23L337.516,36.23L337.516,23.01L333.096,23.01L333.096,20.25L345.076,20.25L345.076,23.01ZM360.668,20.25L354.148,29.69L354.148,36.25L351.008,36.25L351.008,29.65L344.828,20.25L348.428,20.25L352.588,26.97L356.928,20.25L360.668,20.25ZM380.072,36.23L377.032,36.23L369.812,25.01L369.812,36.23L366.772,36.23L366.772,20.23L370.252,20.23L377.032,30.67L377.032,20.23L380.072,20.23L380.072,36.23ZM392.684,36.23L382.124,36.23L382.124,20.25L392.684,20.25L392.684,22.81L385.164,22.81L385.164,26.63L392.584,26.63L392.584,29.13L385.164,29.13L385.164,33.53L392.684,33.53L392.684,36.23ZM405.116,23.01L400.696,23.01L400.696,36.23L397.556,36.23L397.556,23.01L393.136,23.01L393.136,20.25L405.116,20.25L405.116,23.01ZM426.608,20.23L421.408,36.23L418.688,36.23L415.748,26.35L412.788,36.23L410.068,36.23L404.868,20.23L408.148,20.23L411.528,30.57L414.448,20.23L417.008,20.23L419.928,30.59L423.348,20.23L426.608,20.23ZM443.16,28.23C443.16,29.377 442.937,30.457 442.49,31.47C442.043,32.483 441.433,33.363 440.66,34.11C439.887,34.857 438.987,35.447 437.96,35.88C436.933,36.313 435.84,36.53 434.68,36.53C433.52,36.53 432.423,36.313 431.39,35.88C430.357,35.447 429.453,34.857 428.68,34.11C427.907,33.363 427.297,32.487 426.85,31.48C426.403,30.473 426.18,29.39 426.18,28.23C426.18,27.07 426.403,25.983 426.85,24.97C427.297,23.957 427.907,23.077 428.68,22.33C429.453,21.583 430.357,20.997 431.39,20.57C432.423,20.143 433.52,19.93 434.68,19.93C435.84,19.93 436.933,20.143 437.96,20.57C438.987,20.997 439.887,21.587 440.66,22.34C441.433,23.093 442.043,23.973 442.49,24.98C442.937,25.987 443.16,27.07 443.16,28.23ZM440.04,28.23C440.04,27.497 439.9,26.807 439.62,26.16C439.34,25.513 438.957,24.947 438.47,24.46C437.983,23.973 437.413,23.587 436.76,23.3C436.107,23.013 435.413,22.87 434.68,22.87C433.933,22.87 433.233,23.013 432.58,23.3C431.927,23.587 431.357,23.973 430.87,24.46C430.383,24.947 430,25.513 429.72,26.16C429.44,26.807 429.3,27.497 429.3,28.23C429.3,28.95 429.44,29.637 429.72,30.29C430,30.943 430.383,31.513 430.87,32C431.357,32.487 431.927,32.873 432.58,33.16C433.233,33.447 433.933,33.59 434.68,33.59C435.413,33.59 436.107,33.447 436.76,33.16C437.413,32.873 437.983,32.487 438.47,32C438.957,31.513 439.34,30.943 439.62,30.29C439.9,29.637 440.04,28.95 440.04,28.23ZM456.652,36.23L453.232,36.23L452.092,32.59C451.972,32.19 451.822,31.823 451.642,31.49C451.462,31.157 451.245,30.87 450.992,30.63C450.739,30.39 450.435,30.203 450.082,30.07C449.729,29.937 449.312,29.87 448.832,29.87L447.672,29.87L447.672,36.23L444.612,36.23L444.612,20.25L450.932,20.23C451.612,20.23 452.245,20.347 452.832,20.58C453.419,20.813 453.925,21.137 454.352,21.55C454.779,21.963 455.112,22.45 455.352,23.01C455.592,23.57 455.712,24.177 455.712,24.83C455.712,25.297 455.639,25.75 455.492,26.19C455.345,26.63 455.139,27.037 454.872,27.41C454.605,27.783 454.289,28.113 453.922,28.4C453.555,28.687 453.152,28.903 452.712,29.05C453.219,29.237 453.632,29.507 453.952,29.86C454.272,30.213 454.525,30.637 454.712,31.13C454.805,31.357 454.892,31.583 454.972,31.81C455.052,32.037 455.135,32.273 455.222,32.52C455.309,32.767 455.402,33.033 455.502,33.32C455.602,33.607 455.712,33.923 455.832,34.27C455.979,34.71 456.115,35.087 456.242,35.4C456.369,35.713 456.505,35.99 456.652,36.23ZM452.592,25.05C452.592,24.677 452.522,24.337 452.382,24.03C452.242,23.723 452.052,23.457 451.812,23.23C451.572,23.003 451.289,22.827 450.962,22.7C450.635,22.573 450.285,22.51 449.912,22.51L447.672,22.51L447.672,27.49L449.912,27.49C450.285,27.49 450.635,27.433 450.962,27.32C451.289,27.207 451.572,27.043 451.812,26.83C452.052,26.617 452.242,26.36 452.382,26.06C452.522,25.76 452.592,25.423 452.592,25.05ZM471.144,36.23L467.104,36.23L460.704,29.15L460.704,36.23L457.604,36.23L457.604,20.23L460.704,20.23L460.704,27.37L467.244,20.23L470.924,20.23L463.704,28.09L471.144,36.23Z" style="fill:url(#_Linear44);fill-rule:nonzero;"/>
        </g>
    </g>
    <defs>
        <linearGradient id="_Linear1" x1="0" y1="0" x2="1" y2="0" gradientUnits="userSpaceOnUse" gradientTransform="matrix(34.3154,0,0,34.3154,32.3288,49.2636)"><stop offset="0" style="stop-color:rgb(125,20,29);stop-opacity:1"/><stop offset="1" style="stop-color:rgb(255,30,39);stop-opacity:1"/></linearGradient>
        <linearGradient id="_Linear2" x1="0" y1="0" x2="1" y2="0" gradientUnits="userSpaceOnUse" gradientTransform="matrix(14.6916,0,0,14.6916,42.7356,59.3357)"><stop offset="0" style="stop-color:rgb(125,20,29);stop-opacity:1"/><stop offset="1" style="stop-color:rgb(255,30,39);stop-opacity:1"/></linearGradient>
        <linearGradient id="_Linear3" x1="0" y1="0" x2="1" y2="0" gradientUnits="userSpaceOnUse" gradientTransform="matrix(9.6022,0,0,9.6022,24.3857,62.0934)"><stop offset="0" style="stop-color:rgb(125,20,29);stop-opacity:1"/><stop offset="1" style="stop-color:rgb(255,30,39);stop-opacity:1"/></linearGradient>
        <linearGradient id="_Linear4" x1="0" y1="0" x2="1" y2="0" gradientUnits="userSpaceOnUse" gradientTransform="matrix(9.60438,0,0,9.60438,43.6156,82.3659)"><stop offset="0" style="stop-color:rgb(125,20,29);stop-opacity:1"/><stop offset="1" style="stop-color:rgb(255,30,39);stop-opacity:1"/></linearGradient>
        <linearGradient id="_Linear5" x1="0" y1="0" x2="1" y2="0" gradientUnits="userSpaceOnUse" gradientTransform="matrix(4.74429,0,0,4.74429,27.2993,27.3808)"><stop offset="0" style="stop-color:rgb(125,20,29);stop-opacity:1"/><stop offset="1" style="stop-color:rgb(255,30,39);stop-opacity:1"/></linearGradient>
        <linearGradient id="_Linear6" x1="0" y1="0" x2="1" y2="0" gradientUnits="userSpaceOnUse" gradientTransform="matrix(4.73974,0,0,4.73974,10.8619,42.794)"><stop offset="0" style="stop-color:rgb(125,20,29);stop-opacity:1"/><stop offset="1" style="stop-color:rgb(255,30,39);stop-opacity:1"/></linearGradient>
        <linearGradient id="_Linear7" x1="0" y1="0" x2="1" y2="0" gradientUnits="userSpaceOnUse" gradientTransform="matrix(3.86025,0,0,3.86025,5.35347,35.7429)"><stop offset="0" style="stop-color:rgb(125,20,29);stop-opacity:1"/><stop offset="1" style="stop-color:rgb(255,30,39);stop-opacity:1"/></linearGradient>
        <linearGradient id="_Linear8" x1="0" y1="0" x2="1" y2="0" gradientUnits="userSpaceOnUse" gradientTransform="matrix(3.85928,0,0,3.85928,20.2336,21.2311)"><stop offset="0" style="stop-color:rgb(125,20,29);stop-opacity:1"/><stop offset="1" style="stop-color:rgb(255,30,39);stop-opacity:1"/></linearGradient>
        <linearGradient id="_Linear9" x1="0" y1="0" x2="1" y2="0" gradientUnits="userSpaceOnUse" gradientTransform="matrix(4.62533,0,0,4.62533,8.9198,23.6074)"><stop offset="0" style="stop-color:rgb(125,20,29);stop-opacity:1"/><stop offset="1" style="stop-color:rgb(255,30,39);stop-opacity:1"/></linearGradient>
        <linearGradient id="_Linear10" x1="0" y1="0" x2="1" y2="0" gradientUnits="userSpaceOnUse" gradientTransform="matrix(7.28456,0,0,7.28456,34.5211,33.9369)"><stop offset="0" style="stop-color:rgb(125,20,29);stop-opacity:1"/><stop offset="1" style="stop-color:rgb(255,30,39);stop-opacity:1"/></linearGradient>
        <linearGradient id="_Linear11" x1="0" y1="0" x2="1" y2="0" gradientUnits="userSpaceOnUse" gradientTransform="matrix(7.28197,0,0,7.28197,17.0614,50.5031)"><stop offset="0" style="stop-color:rgb(125,20,29);stop-opacity:1"/><stop offset="1" style="stop-color:rgb(255,30,39);stop-opacity:1"/></linearGradient>
        <linearGradient id="_Linear12" x1="0" y1="0" x2="1" y2="0" gradientUnits="userSpaceOnUse" gradientTransform="matrix(7.28658,0,0,7.28658,15.3212,30.9018)"><stop offset="0" style="stop-color:rgb(125,20,29);stop-opacity:1"/><stop offset="1" style="stop-color:rgb(255,30,39);stop-opacity:1"/></linearGradient>
        <linearGradient id="_Linear13" x1="0" y1="0" x2="1" y2="0" gradientUnits="userSpaceOnUse" gradientTransform="matrix(9.60762,0,0,9.60762,23.7334,39.6877)"><stop offset="0" style="stop-color:rgb(125,20,29);stop-opacity:1"/><stop offset="1" style="stop-color:rgb(255,30,39);stop-opacity:1"/></linearGradient>
        <linearGradient id="_Linear14" x1="0" y1="0" x2="1" y2="0" gradientUnits="userSpaceOnUse" gradientTransform="matrix(4.7352,0,0,4.7352,83.7047,84.7141)"><stop offset="0" style="stop-color:rgb(125,20,29);stop-opacity:1"/><stop offset="1" style="stop-color:rgb(255,30,39);stop-opacity:1"/></linearGradient>
        <linearGradient id="_Linear15" x1="0" y1="0" x2="1" y2="0" gradientUnits="userSpaceOnUse" gradientTransform="matrix(4.74327,0,0,4.74327,67.9518,100.832)"><stop offset="0" style="stop-color:rgb(125,20,29);stop-opacity:1"/><stop offset="1" style="stop-color:rgb(255,30,39);stop-opacity:1"/></linearGradient>
        <linearGradient id="_Linear16" x1="0" y1="0" x2="1" y2="0" gradientUnits="userSpaceOnUse" gradientTransform="matrix(3.86635,0,0,3.86635,75.7509,107.372)"><stop offset="0" style="stop-color:rgb(125,20,29);stop-opacity:1"/><stop offset="1" style="stop-color:rgb(255,30,39);stop-opacity:1"/></linearGradient>
        <linearGradient id="_Linear17" x1="0" y1="0" x2="1" y2="0" gradientUnits="userSpaceOnUse" gradientTransform="matrix(3.86581,0,0,3.86581,90.5716,92.7931)"><stop offset="0" style="stop-color:rgb(125,20,29);stop-opacity:1"/><stop offset="1" style="stop-color:rgb(255,30,39);stop-opacity:1"/></linearGradient>
        <linearGradient id="_Linear18" x1="0" y1="0" x2="1" y2="0" gradientUnits="userSpaceOnUse" gradientTransform="matrix(4.63339,0,0,4.63339,87.1976,103.281)"><stop offset="0" style="stop-color:rgb(125,20,29);stop-opacity:1"/><stop offset="1" style="stop-color:rgb(255,30,39);stop-opacity:1"/></linearGradient>
        <linearGradient id="_Linear19" x1="0" y1="0" x2="1" y2="0" gradientUnits="userSpaceOnUse" gradientTransform="matrix(7.2786,0,0,7.2786,74.7874,74.7945)"><stop offset="0" style="stop-color:rgb(125,20,29);stop-opacity:1"/><stop offset="1" style="stop-color:rgb(255,30,39);stop-opacity:1"/></linearGradient>
        <linearGradient id="_Linear20" x1="0" y1="0" x2="1" y2="0" gradientUnits="userSpaceOnUse" gradientTransform="matrix(7.27314,0,0,7.27314,57.8688,91.9045)"><stop offset="0" style="stop-color:rgb(125,20,29);stop-opacity:1"/><stop offset="1" style="stop-color:rgb(255,30,39);stop-opacity:1"/></linearGradient>
        <linearGradient id="_Linear21" x1="0" y1="0" x2="1" y2="0" gradientUnits="userSpaceOnUse" gradientTransform="matrix(7.28217,0,0,7.28217,77.4213,94.0471)"><stop offset="0" style="stop-color:rgb(125,20,29);stop-opacity:1"/><stop offset="1" style="stop-color:rgb(255,30,39);stop-opacity:1"/></linearGradient>
        <linearGradient id="_Linear22" x1="0" y1="0" x2="1" y2="0" gradientUnits="userSpaceOnUse" gradientTransform="matrix(9.60696,0,0,9.60696,66.5059,83.1018)"><stop offset="0" style="stop-color:rgb(125,20,29);stop-opacity:1"/><stop offset="1" style="stop-color:rgb(255,30,39);stop-opacity:1"/></linearGradient>
        <linearGradient id="_Linear23" x1="0" y1="0" x2="1" y2="0" gradientUnits="userSpaceOnUse" gradientTransform="matrix(9.60256,0,0,9.60256,45.1465,42.1082)"><stop offset="0" style="stop-color:rgb(125,20,29);stop-opacity:1"/><stop offset="1" style="stop-color:rgb(255,30,39);stop-opacity:1"/></linearGradient>
        <linearGradient id="_Linear24" x1="0" y1="0" x2="1" y2="0" gradientUnits="userSpaceOnUse" gradientTransform="matrix(9.60062,0,0,9.60062,64.6768,62.0926)"><stop offset="0" style="stop-color:rgb(125,20,29);stop-opacity:1"/><stop offset="1" style="stop-color:rgb(255,30,39);stop-opacity:1"/></linearGradient>
        <linearGradient id="_Linear25" x1="0" y1="0" x2="1" y2="0" gradientUnits="userSpaceOnUse" gradientTransform="matrix(35.5051,0,0,35.5051,31.3466,48.6714)"><stop offset="0" style="stop-color:rgb(125,20,29);stop-opacity:1"/><stop offset="1" style="stop-color:rgb(255,30,39);stop-opacity:1"/></linearGradient>
        <linearGradient id="_Linear26" x1="0" y1="0" x2="1" y2="0" gradientUnits="userSpaceOnUse" gradientTransform="matrix(4.73388,0,0,4.73388,84,43.6366)"><stop offset="0" style="stop-color:rgb(125,20,29);stop-opacity:1"/><stop offset="1" style="stop-color:rgb(255,30,39);stop-opacity:1"/></linearGradient>
        <linearGradient id="_Linear27" x1="0" y1="0" x2="1" y2="0" gradientUnits="userSpaceOnUse" gradientTransform="matrix(4.74244,0,0,4.74244,68.5849,27.2038)"><stop offset="0" style="stop-color:rgb(125,20,29);stop-opacity:1"/><stop offset="1" style="stop-color:rgb(255,30,39);stop-opacity:1"/></linearGradient>
        <linearGradient id="_Linear28" x1="0" y1="0" x2="1" y2="0" gradientUnits="userSpaceOnUse" gradientTransform="matrix(3.8631,0,0,3.8631,76.5138,21.6908)"><stop offset="0" style="stop-color:rgb(125,20,29);stop-opacity:1"/><stop offset="1" style="stop-color:rgb(255,30,39);stop-opacity:1"/></linearGradient>
        <linearGradient id="_Linear29" x1="0" y1="0" x2="1" y2="0" gradientUnits="userSpaceOnUse" gradientTransform="matrix(3.85998,0,0,3.85998,91.026,36.5701)"><stop offset="0" style="stop-color:rgb(125,20,29);stop-opacity:1"/><stop offset="1" style="stop-color:rgb(255,30,39);stop-opacity:1"/></linearGradient>
        <linearGradient id="_Linear30" x1="0" y1="0" x2="1" y2="0" gradientUnits="userSpaceOnUse" gradientTransform="matrix(4.63451,0,0,4.63451,87.8802,25.2545)"><stop offset="0" style="stop-color:rgb(125,20,29);stop-opacity:1"/><stop offset="1" style="stop-color:rgb(255,30,39);stop-opacity:1"/></linearGradient>
        <linearGradient id="_Linear31" x1="0" y1="0" x2="1" y2="0" gradientUnits="userSpaceOnUse" gradientTransform="matrix(7.27405,0,0,7.27405,74.9073,50.8599)"><stop offset="0" style="stop-color:rgb(125,20,29);stop-opacity:1"/><stop offset="1" style="stop-color:rgb(255,30,39);stop-opacity:1"/></linearGradient>
        <linearGradient id="_Linear32" x1="0" y1="0" x2="1" y2="0" gradientUnits="userSpaceOnUse" gradientTransform="matrix(7.27342,0,0,7.27342,58.3476,33.3988)"><stop offset="0" style="stop-color:rgb(125,20,29);stop-opacity:1"/><stop offset="1" style="stop-color:rgb(255,30,39);stop-opacity:1"/></linearGradient>
        <linearGradient id="_Linear33" x1="0" y1="0" x2="1" y2="0" gradientUnits="userSpaceOnUse" gradientTransform="matrix(7.278,0,0,7.278,77.943,31.6566)"><stop offset="0" style="stop-color:rgb(125,20,29);stop-opacity:1"/><stop offset="1" style="stop-color:rgb(255,30,39);stop-opacity:1"/></linearGradient>
        <linearGradient id="_Linear34" x1="0" y1="0" x2="1" y2="0" gradientUnits="userSpaceOnUse" gradientTransform="matrix(9.59627,0,0,9.59627,66.8289,40.0749)"><stop offset="0" style="stop-color:rgb(125,20,29);stop-opacity:1"/><stop offset="1" style="stop-color:rgb(255,30,39);stop-opacity:1"/></linearGradient>
        <linearGradient id="_Linear35" x1="0" y1="0" x2="1" y2="0" gradientUnits="userSpaceOnUse" gradientTransform="matrix(4.74539,0,0,4.74539,26.6631,100.041)"><stop offset="0" style="stop-color:rgb(125,20,29);stop-opacity:1"/><stop offset="1" style="stop-color:rgb(255,30,39);stop-opacity:1"/></linearGradient>
        <linearGradient id="_Linear36" x1="0" y1="0" x2="1" y2="0" gradientUnits="userSpaceOnUse" gradientTransform="matrix(4.73872,0,0,4.73872,10.5512,84.2864)"><stop offset="0" style="stop-color:rgb(125,20,29);stop-opacity:1"/><stop offset="1" style="stop-color:rgb(255,30,39);stop-opacity:1"/></linearGradient>
        <linearGradient id="_Linear37" x1="0" y1="0" x2="1" y2="0" gradientUnits="userSpaceOnUse" gradientTransform="matrix(3.86407,0,0,3.86407,4.88636,92.0916)"><stop offset="0" style="stop-color:rgb(125,20,29);stop-opacity:1"/><stop offset="1" style="stop-color:rgb(255,30,39);stop-opacity:1"/></linearGradient>
        <linearGradient id="_Linear38" x1="0" y1="0" x2="1" y2="0" gradientUnits="userSpaceOnUse" gradientTransform="matrix(3.85942,0,0,3.85942,19.4631,106.91)"><stop offset="0" style="stop-color:rgb(125,20,29);stop-opacity:1"/><stop offset="1" style="stop-color:rgb(255,30,39);stop-opacity:1"/></linearGradient>
        <linearGradient id="_Linear39" x1="0" y1="0" x2="1" y2="0" gradientUnits="userSpaceOnUse" gradientTransform="matrix(4.62678,0,0,4.62678,8.20873,103.538)"><stop offset="0" style="stop-color:rgb(125,20,29);stop-opacity:1"/><stop offset="1" style="stop-color:rgb(255,30,39);stop-opacity:1"/></linearGradient>
        <linearGradient id="_Linear40" x1="0" y1="0" x2="1" y2="0" gradientUnits="userSpaceOnUse" gradientTransform="matrix(7.28127,0,0,7.28127,34.0476,91.1214)"><stop offset="0" style="stop-color:rgb(125,20,29);stop-opacity:1"/><stop offset="1" style="stop-color:rgb(255,30,39);stop-opacity:1"/></linearGradient>
        <linearGradient id="_Linear41" x1="0" y1="0" x2="1" y2="0" gradientUnits="userSpaceOnUse" gradientTransform="matrix(7.28065,0,0,7.28065,16.9343,74.2013)"><stop offset="0" style="stop-color:rgb(125,20,29);stop-opacity:1"/><stop offset="1" style="stop-color:rgb(255,30,39);stop-opacity:1"/></linearGradient>
        <linearGradient id="_Linear42" x1="0" y1="0" x2="1" y2="0" gradientUnits="userSpaceOnUse" gradientTransform="matrix(7.28626,0,0,7.28626,14.7917,93.759)"><stop offset="0" style="stop-color:rgb(125,20,29);stop-opacity:1"/><stop offset="1" style="stop-color:rgb(255,30,39);stop-opacity:1"/></linearGradient>
        <linearGradient id="_Linear43" x1="0" y1="0" x2="1" y2="0" gradientUnits="userSpaceOnUse" gradientTransform="matrix(9.60694,0,0,9.60694,23.4067,82.8474)"><stop offset="0" style="stop-color:rgb(125,20,29);stop-opacity:1"/><stop offset="1" style="stop-color:rgb(255,30,39);stop-opacity:1"/></linearGradient>
        <linearGradient id="_Linear44" x1="0" y1="0" x2="1" y2="0" gradientUnits="userSpaceOnUse" gradientTransform="matrix(470.344,0,0,470.344,0.8,19.91)"><stop offset="0" style="stop-color:rgb(125,20,29);stop-opacity:1"/><stop offset="1" style="stop-color:rgb(255,30,39);stop-opacity:1"/></linearGradient>
    </defs>
</svg>
